<svg width="34" height="32" viewBox="0 0 34 32" fill="none" xmlns="http://www.w3.org/2000/svg">
<g clip-path="url(#clip0_1_1485)">
<path fill-rule="evenodd" clip-rule="evenodd" d="M17 0.00305176C7.6075 0.00305176 0 7.16305 0 16.0031C0 23.083 4.86625 29.0631 11.6237 31.1831C12.4737 31.323 12.7925 30.8431 12.7925 30.423C12.7925 30.0431 12.7712 28.7831 12.7712 27.4431C8.5 28.1831 7.395 26.4631 7.055 25.5631C6.86375 25.1031 6.035 23.6831 5.3125 23.3031C4.7175 23.0031 3.8675 22.2631 5.29125 22.2431C6.63 22.2231 7.58625 23.403 7.905 23.8831C9.435 26.3031 11.8787 25.623 12.8562 25.2031C13.005 24.163 13.4513 23.4631 13.94 23.0631C10.1575 22.663 6.205 21.2831 6.205 15.1631C6.205 13.4231 6.86375 11.9831 7.9475 10.8631C7.7775 10.4631 7.1825 8.82305 8.1175 6.62305C8.1175 6.62305 9.54125 6.20305 12.7925 8.26305C14.1525 7.90305 15.5975 7.72305 17.0425 7.72305C18.4875 7.72305 19.9325 7.90305 21.2925 8.26305C24.5437 6.18305 25.9675 6.62305 25.9675 6.62305C26.9025 8.82305 26.3075 10.4631 26.1375 10.8631C27.2213 11.9831 27.88 13.4031 27.88 15.1631C27.88 21.3031 23.9062 22.663 20.1237 23.0631C20.74 23.5631 21.2712 24.5231 21.2712 26.0231C21.2712 28.163 21.25 29.8831 21.25 30.423C21.25 30.8431 21.5687 31.3431 22.4187 31.1831C25.7935 30.1107 28.726 28.0693 30.8035 25.3462C32.881 22.6231 33.999 19.3554 34 16.0031C34 7.16305 26.3925 0.00305176 17 0.00305176Z" fill="black"/>
</g>
<defs>
<clipPath id="clip0_1_1485">
<rect y="0.00305176" width="34" height="32" rx="16" fill="white"/>
</clipPath>
</defs>
</svg>
