<svg width="34" height="32" viewBox="0 0 34 32" fill="none" xmlns="http://www.w3.org/2000/svg">
<path d="M33.6693 12.8692H32.3V12.8028H17V19.2027H26.6075C25.2059 22.9282 21.4395 25.6026 17 25.6026C11.367 25.6026 6.79999 21.3043 6.79999 16.0028C6.79999 10.7013 11.367 6.40293 17 6.40293C19.6001 6.40293 21.9657 7.32612 23.7668 8.83409L28.5753 4.30857C25.5391 1.64542 21.4778 0.00305176 17 0.00305176C7.61174 0.00305176 0 7.16692 0 16.0028C0 24.8386 7.61174 32.0025 17 32.0025C26.3882 32.0025 34 24.8386 34 16.0028C34 14.93 33.8827 13.8828 33.6693 12.8692Z" fill="#FFC107"/>
<path d="M1.95898 8.5557L7.54433 12.4108C9.05563 8.88929 12.7157 6.40294 16.9989 6.40294C19.599 6.40294 21.9646 7.32612 23.7657 8.83409L28.5742 4.30857C25.538 1.64542 21.4767 0.00305176 16.9989 0.00305176C10.4692 0.00305176 4.80648 3.47259 1.95898 8.5557Z" fill="#FF3D00"/>
<path d="M17.0002 32.003C21.3913 32.003 25.3812 30.4215 28.3978 27.8495L23.1363 23.6592C21.3722 24.9219 19.2165 25.6048 17.0002 25.6031C12.5785 25.6031 8.82406 22.9496 7.40966 19.2465L1.86597 23.2664C4.67946 28.4479 10.3932 32.003 17.0002 32.003Z" fill="#4CAF50"/>
<path d="M33.6693 12.8693H32.3V12.8029H17V19.2027H26.6075C25.9371 20.9758 24.7293 22.5252 23.1336 23.6595L23.1361 23.6579L28.3976 27.8482C28.0253 28.1666 34 24.0027 34 16.0028C34 14.93 33.8827 13.8828 33.6693 12.8693Z" fill="#1976D2"/>
</svg>
